<svg id="Layer_1" enable-background="new 0 0 511.887 511.887" height="23" viewBox="0 0 511.887 511.887" width="23" xmlns="http://www.w3.org/2000/svg"><g><path d="m494.918 16.969c-21.69-22.625-61.041-22.624-82.73 0l-11.667 11.667c-.002.002-.003.003-.005.005l-34.247 34.247h-284.894c-8.284 0-15 6.716-15 15v18.051h-51.375c-8.284 0-15 6.716-15 15v320.949c0 8.284 6.716 15 15 15h147.094c-6.419 20.267-25.402 35-47.765 35h-1.566c-19.902.793-19.887 29.215 0 30h233.7c19.902-.793 19.887-29.215 0-30h-1.566c-22.363 0-41.346-14.732-47.765-35h147.094c8.284 0 15-6.716 15-15v-296.495l24.026-24.026 11.666-11.667c22.626-21.69 22.624-61.042 0-82.731zm-61.518 21.213c10.524-10.986 29.781-10.986 40.305 0 10.987 10.524 10.986 29.782 0 40.305l-1.061 1.06-40.304-40.305zm-98.641 179.251-40.305-40.305 116.673-116.673 40.305 40.305zm-27.513 14.913-42.512 14.808 14.807-42.512zm-210.871-139.459h239.895l-73.634 73.634c-1.589 1.589-2.821 3.549-3.559 5.672l-32.88 94.399c-1.893 5.434-.51 11.472 3.559 15.541 4.077 4.089 10.166 5.443 15.541 3.559 0 0 94.399-32.881 94.399-32.881 1.7-.592 3.292-1.496 4.671-2.652.337-.281.663-.573.973-.881.016-.008 17.493-17.493 17.512-17.509v125.118h-266.477zm-30 33.051v230.949h-36.375v-230.949zm216.093 355.948h-105.687c8.028-9.987 13.696-21.938 16.198-35h73.271c2.502 13.067 8.186 25.011 16.218 35zm146.757-64.999h-399.225v-30h399.225zm0-60h-36.375v-155.118l36.375-36.375z"/><path d="m239 137.888c0-8.284-6.716-15-15-15h-83c-19.902.793-19.887 29.215 0 30h83c8.285 0 15-6.716 15-15z"/><path d="m193.189 182.888h-52.189c-19.902.793-19.887 29.215 0 30h52.189c19.902-.793 19.887-29.215 0-30z"/><path d="m180.656 242.888h-39.656c-19.902.793-19.887 29.215 0 30h39.656c19.902-.793 19.887-29.215 0-30z"/></g></svg>